# xmcd
#
# Track frame offsets:
#	150
#	15825
#	30300
#	48375
#	64162
#	88800
#	106050
#	123337
#	144712
#	164887
#	189862
#	210562
#
# Disc length: 3029 seconds
# Revision: 0
# Processed by: cddbd v1.5.2PL0 Copyright (c) Steve Scherf et al.
# Submitted via: dBpowerAMP V12.0
#
DISCID=9b0bd30c
DTITLE=The Black Sorrows - Faithful Satellite
DYEAR=2016
DGENRE=Blues
TTITLE0=I Love You Anyhow
TTITLE1=Raise Your Hands
TTITLE2=It Ain't Ever Gonna Happen
TTITLE3=Land Of The Dead
TTITLE4=Cold Grey Moon
TTITLE5=Fix My Bail
TTITLE6=Carolina
TTITLE7=You Were Never Mine
TTITLE8=Winter Rose
TTITLE9=Love Is On Its Way
TTITLE10=Beat Nightmare
TTITLE11=Into Twilight
EXTD=
EXTT0=
EXTT1=
EXTT2=
EXTT3=
EXTT4=
EXTT5=
EXTT6=
EXTT7=
EXTT8=
EXTT9=
EXTT10=
EXTT11=
PLAYORDER=
